<svg xmlns="http://www.w3.org/2000/svg" width="1200" height="630" viewBox="0 0 1200 630">
  <defs>
    <linearGradient id="bg" x1="0" y1="0" x2="1" y2="1">
      <stop offset="0" stop-color="#08090e" />
      <stop offset="1" stop-color="#030406" />
    </linearGradient>
    <radialGradient id="r1" cx="20%" cy="20%" r="60%">
      <stop offset="0" stop-color="#7c5cff" stop-opacity="0.35" />
      <stop offset="1" stop-color="#7c5cff" stop-opacity="0" />
    </radialGradient>
    <radialGradient id="r2" cx="85%" cy="18%" r="55%">
      <stop offset="0" stop-color="#00f0ff" stop-opacity="0.22" />
      <stop offset="1" stop-color="#00f0ff" stop-opacity="0" />
    </radialGradient>
    <linearGradient id="fg" x1="0" y1="0" x2="1" y2="0">
      <stop offset="0" stop-color="#00f0ff" />
      <stop offset="1" stop-color="#7c5cff" />
    </linearGradient>
  </defs>

  <rect width="1200" height="630" fill="url(#bg)" />
  <rect width="1200" height="630" fill="url(#r1)" />
  <rect width="1200" height="630" fill="url(#r2)" />

  <g fill="none" stroke="rgba(255,255,255,0.07)">
    <path d="M0 130H1200" />
    <path d="M0 260H1200" />
    <path d="M0 390H1200" />
    <path d="M0 520H1200" />
    <path d="M140 0V630" />
    <path d="M320 0V630" />
    <path d="M500 0V630" />
    <path d="M680 0V630" />
    <path d="M860 0V630" />
    <path d="M1040 0V630" />
  </g>

  <g transform="translate(90 140)">
    <text x="0" y="0" font-family="system-ui, -apple-system, Segoe UI, Roboto, Arial" font-size="56" font-weight="700" fill="url(#fg)">
      MiLux AI Labs
    </text>
    <text x="0" y="78" font-family="system-ui, -apple-system, Segoe UI, Roboto, Arial" font-size="30" fill="rgba(231,234,240,0.92)">
      Bringing education into the future with AI
    </text>

    <g transform="translate(0 140)">
      <rect x="0" y="0" width="520" height="86" rx="22" fill="rgba(255,255,255,0.05)" stroke="rgba(255,255,255,0.08)" />
      <text x="28" y="54" font-family="system-ui, -apple-system, Segoe UI, Roboto, Arial" font-size="22" fill="rgba(231,234,240,0.9)">
        Tik‑Mathik AI • TikDrive • TikLang AI
      </text>
    </g>
  </g>
</svg>
